<?xml version="1.0" encoding="utf-8"?>
<!-- Generator: Adobe Illustrator 23.0.2, SVG Export Plug-In . SVG Version: 6.00 Build 0)  -->
<svg version="1.1" id="Layer_1" xmlns="http://www.w3.org/2000/svg" xmlns:xlink="http://www.w3.org/1999/xlink" x="0px" y="0px"
	 viewBox="0 0 88 20" style="enable-background:new 0 0 88 20;" xml:space="preserve">
<style type="text/css">
	.st0{enable-background:new    ;}
	.st1{fill:#3E0C64;}
</style>
<g class="st0">
	<path class="st1" d="M32.5,14.1c0,0.3-0.2,0.4-0.5,0.4c-0.2,0-0.4-0.2-0.7-0.5c-0.4-0.4-0.7-0.9-1.1-1.3c-1.4-1.6-2.8-2.4-4-2.4
		c-0.6,0-1.2,0.1-1.7,0.4c-0.5,0.3-0.7,0.4-0.7,0.4c-0.1,0-0.2-0.1-0.2-0.2c0,0,0-0.1,0-0.1c0,0,0-0.1,0-0.1c0-0.1,0-0.2,0.1-0.5
		C23.9,10.2,24,10,24,9.9c0-0.2-0.1-0.3-0.3-0.3H23c-1,0-1.9,0.5-2.4,1.4c-0.4,0.7-0.8,1.2-1.2,1.5C19,12.8,18.6,13,18.1,13
		c-0.9,0-1.3-0.6-1.3-1.8c0-0.2,0.1-0.4,0.2-0.8c0.1-0.4,0.2-0.7,0.2-0.9C17.1,9.2,17,9,16.6,9c-0.5,0-1.1,0.2-1.9,0.6
		C13.9,10,13.4,10.5,13,11c0,0-0.1,0.2-0.2,0.4c-0.1,0.1-0.2,0.2-0.3,0.2c-0.3,0-0.4-0.2-0.4-0.7v-0.3c-0.4,0.1-0.8,0.7-1,1.5
		c-0.4,1.3-1,2-1.8,2c-0.5,0-0.9-0.2-1.3-0.6c-0.4-0.4-0.5-0.9-0.5-1.5c0-0.2,0.1-0.5,0.2-0.8c0.1-0.4,0.2-0.6,0.2-0.8
		c0-0.2-0.1-0.3-0.3-0.3c-0.3,0-0.8,0.2-1.6,0.6c-1,0.5-1.9,1.2-2.9,2.1c-0.3,0.3-0.6,0.6-0.9,0.9c-0.3,0.3-0.6,0.5-0.8,0.5
		c-0.3,0-0.4-0.1-0.4-0.4c0-0.2,0.2-0.5,0.7-1c0.5-0.5,1.2-1,2.1-1.6C4.3,10.9,5,10.5,5.9,10c0.5-0.3,0.7-0.4,0.7-0.5
		c0-0.1-0.1-0.1-0.2-0.1H6.1c-0.2,0-0.5,0-0.9,0c-0.4,0-0.6,0-0.8,0C3.5,9.3,2.7,9,2,8.4c-0.7-0.6-1-1.3-1-2C1,6.1,1.2,6,1.5,6
		c0.4,0,0.8,0.3,1.1,0.9l0.7,1.3c0.4,0.4,1.4,0.6,3.1,0.6c1.1,0,2.4-0.2,4-0.6c0.8-0.2,1.6-0.5,2.3-0.7C14,7.1,15.3,7,16.6,7
		c1.3,0,3.1,0.3,5.5,0.9c2.8,0.7,5.1,1.5,7,2.4C31.4,11.4,32.5,12.7,32.5,14.1z"/>
	<path class="st1" d="M54,18.3c0,0.6-0.5,1-1.4,1c-1.2,0-2.5-0.4-3.8-1.1c-1.5-0.8-2.8-1.9-3.9-3.3l-0.4-0.3c0,1.3-0.1,2.6-0.1,3.9
		c0,0.9-0.1,1.3-0.3,1.3c-0.3,0-0.4-0.4-0.5-1.3c0-0.3-0.1-1.6-0.3-3.8c0-0.2-0.1-0.4-0.2-0.4c0,0-0.1,0.1-0.3,0.4
		c-0.2,0.4-0.5,0.8-0.9,1.3c-0.9,1-1.9,1.8-3,2.3c-1.1,0.6-2.2,0.8-3.3,0.8c-0.4,0-0.7-0.1-1-0.4c-0.3-0.3-0.4-0.6-0.4-0.9
		c0-0.4,0.2-0.6,0.6-0.8c0.8-0.4,1.2-0.6,1.4-0.7c0,0-0.5-0.3-1.4-0.9c-0.5-0.3-0.7-0.6-0.7-1c0-0.3,0.1-0.5,0.3-0.7
		s0.5-0.3,0.7-0.3c-0.2,0,0.3,0.1,1.4,0.3c1.1,0.2,2.4,0.4,3.7,0.4c0.5,0,0.9-0.1,1.3-0.2c0.3-0.1,0.5-0.3,0.5-0.5s-0.1-0.3-0.3-0.5
		c-0.2-0.1-0.5-0.1-0.7-0.2c-0.6-0.2-1.1-0.4-1.7-0.8c-1.1-0.7-2-1.6-2.7-2.8c-0.7-1.1-1-2.1-1-3.2c0-0.6,0.3-0.9,0.8-0.9
		c0.3,0,0.5,0.2,0.7,0.5c0.1,0.3,0.3,0.5,0.5,0.5c0.2,0,0.4-0.3,0.4-0.8V4.7c0-0.9,0.3-1.4,0.9-1.4c0.3,0,0.5,0.1,0.7,0.3
		c0.2,0.2,0.3,0.5,0.3,0.8c0,0.1,0,0.2-0.1,0.5s-0.1,0.5-0.1,0.7c0,2.1,0.3,3.7,1,5c0.6,1.2,1.4,1.8,2.3,1.8c0.3,0,0.4-0.1,0.4-0.2
		c0-0.1-0.1-0.2-0.3-0.4c-0.3-0.3-0.5-0.5-0.6-0.8c-0.4-0.6-0.7-1.5-1-2.8c-0.3-1.4-0.5-2.7-0.5-4c0-0.5,0.1-0.9,0.3-1.3
		c0.2-0.4,0.4-0.5,0.6-0.5c0.3,0,0.5,0.2,0.8,0.6c0.3,0.4,0.5,0.6,0.6,0.7c0-0.2,0.1-0.3,0.1-0.5c0-0.3,0-0.5-0.1-0.9
		c0-0.3-0.1-0.5-0.1-0.6c0-0.3,0.1-0.5,0.2-0.7c0.2-0.2,0.3-0.3,0.5-0.3c0.5,0,0.8,0.4,0.8,1.2c0,0.2,0,0.4-0.1,0.7
		c0,0.3,0,0.6,0,0.7c0,0,0,0.2,0,0.3c0.1-0.1,0.4-0.3,0.6-0.7c0.2-0.3,0.4-0.5,0.6-0.5c0.4,0,0.7,0.6,0.8,1.7c0,0.4,0.1,1.1,0.1,2.3
		c0,1.7-0.7,3.7-2,5.9c0,0.1,0.1,0.2,0.3,0.2c0.9,0,1.5-0.5,2-1.4c0.5-0.9,0.8-2.4,0.9-4.3c0-0.4,0-0.7,0-0.9c0-0.1,0-0.2,0-0.4
		c0-0.2,0-0.3,0-0.4c0-1.2,0.4-1.9,1.1-1.9c0.3,0,0.5,0.2,0.6,0.5C49.9,3.9,50,4.3,50,5.1c0.1,0.9,0.2,1.3,0.2,1.3
		c0.1,0,0.2-0.1,0.3-0.4c0.1-0.3,0.2-0.6,0.3-0.9c0.1-0.2,0.3-0.4,0.6-0.4c0.3,0,0.5,0.1,0.7,0.4c0.2,0.3,0.3,0.6,0.3,0.9
		c0,0.9-0.3,1.9-1,3c-1.1,1.9-2.4,3-3.8,3.5c-0.3,0.1-0.7,0.2-1,0.3c-0.4,0.1-0.7,0.3-0.9,0.5v0c0,0.2,0.2,0.3,0.6,0.5
		c0.4,0.2,0.9,0.3,1.5,0.3c0.7,0,1.6-0.1,2.6-0.2s1.7-0.2,2-0.2c0.8,0,1.2,0.4,1.2,1.1c0,0.4-0.4,0.8-1.1,1.1c0,0-0.2,0.1-0.6,0.2
		c-0.1,0.1-0.2,0.1-0.2,0.2c0,0.2,0.2,0.4,0.5,0.5c0.4,0.2,0.8,0.3,1.2,0.5C53.8,17.6,54,17.9,54,18.3z"/>
	<path class="st1" d="M86.8,13.6c0,0.3-0.2,0.4-0.5,0.4c-0.3,0-0.6-0.1-0.9-0.4c-0.2-0.2-0.4-0.4-0.6-0.7c-0.9-0.8-1.8-1.6-2.8-2.1
		c-0.8-0.5-1.4-0.7-1.7-0.7c-0.2,0-0.3,0.1-0.3,0.3c0,0.1,0.1,0.4,0.2,0.8c0.1,0.4,0.2,0.6,0.2,0.8c0,0.7-0.2,1.2-0.5,1.7
		c-0.3,0.4-0.7,0.6-1.2,0.6c-0.9,0-1.5-0.6-1.9-1.9c-0.2-0.6-0.3-1-0.4-1.1c-0.2-0.3-0.4-0.5-0.7-0.7c0,0,0,0.1,0,0.1
		c0,0,0,0.1,0,0.1c0,0.5-0.1,0.8-0.4,0.8c-0.1,0-0.2-0.1-0.3-0.2c-0.1-0.1-0.1-0.3-0.2-0.4c-0.3-0.5-0.9-1-1.9-1.5
		C72.1,9.2,71.5,9,71.1,9c-0.3,0-0.5,0.1-0.5,0.4c0,0.2,0,0.5,0.2,0.9c0.1,0.4,0.1,0.7,0.1,0.8c0,0.5-0.2,1-0.5,1.4
		c-0.3,0.4-0.7,0.6-1,0.6c-0.4,0-0.8-0.1-1.1-0.4c-0.2-0.2-0.5-0.5-0.7-1c-0.3-0.6-0.6-1-0.6-1.1c-0.5-0.7-1.4-1.1-2.9-1.1
		c-0.2,0-0.3,0.1-0.3,0.3c0,0.1,0,0.3,0.1,0.6C64,10.7,64,10.9,64,11c0,0.1-0.1,0.2-0.2,0.2c0.1,0-0.1-0.1-0.6-0.4
		c-0.5-0.3-1.1-0.4-1.7-0.4c-1.1,0-2.4,0.8-4,2.3c-0.3,0.3-0.7,0.7-1.2,1.3c-0.3,0.3-0.5,0.5-0.7,0.5c-0.3,0-0.5-0.2-0.5-0.5V14
		c3.6-4.7,8.9-7,15.9-7c1.5,0,3.2,0.3,5.1,0.8c2.3,0.7,4.1,1,5.4,1c1.5,0,2.4-0.2,2.9-0.7c0.1-0.1,0.4-0.6,0.8-1.3
		C85.5,6.2,85.8,6,86.2,6c0.3,0,0.5,0.1,0.5,0.4c0,0.7-0.3,1.4-1,2c-0.7,0.6-1.5,0.9-2.4,0.9c-0.1,0-0.4,0-0.8,0c-0.4,0-0.7,0-1,0
		c-0.1,0-0.2,0-0.2,0c0,0-0.1,0.1-0.1,0.2v0c0,0.1,0.2,0.2,0.6,0.4c1,0.5,1.6,0.9,1.8,1C85.7,12.1,86.8,13,86.8,13.6z"/>
</g>
</svg>
